<mxfile host="app.diagrams.net" modified="2020-09-16T14:13:54.982Z" agent="5.0 (Windows NT 10.0; Win64; x64) AppleWebKit/537.36 (KHTML, like Gecko) Chrome/85.0.4183.102 Safari/537.36" etag="c6Ix3uUI-KBxscmR--cq" version="13.7.1" type="github">
  <diagram id="C5RBs43oDa-KdzZeNtuy" name="Page-1">
    <mxGraphModel dx="1019" dy="1681" grid="1" gridSize="10" guides="1" tooltips="1" connect="1" arrows="1" fold="1" page="1" pageScale="1" pageWidth="827" pageHeight="1169" math="0" shadow="0">
      <root>
        <mxCell id="WIyWlLk6GJQsqaUBKTNV-0" />
        <mxCell id="WIyWlLk6GJQsqaUBKTNV-1" parent="WIyWlLk6GJQsqaUBKTNV-0" />
        <mxCell id="WIyWlLk6GJQsqaUBKTNV-2" value="" style="rounded=0;html=1;jettySize=auto;orthogonalLoop=1;fontSize=11;endArrow=block;endFill=0;endSize=8;strokeWidth=1;shadow=0;labelBackgroundColor=none;edgeStyle=orthogonalEdgeStyle;" parent="WIyWlLk6GJQsqaUBKTNV-1" source="WIyWlLk6GJQsqaUBKTNV-3" edge="1">
          <mxGeometry relative="1" as="geometry">
            <mxPoint x="220" y="170" as="targetPoint" />
          </mxGeometry>
        </mxCell>
        <mxCell id="WIyWlLk6GJQsqaUBKTNV-3" value="Welcome!" style="rounded=1;whiteSpace=wrap;html=1;fontSize=12;glass=0;strokeWidth=1;shadow=0;" parent="WIyWlLk6GJQsqaUBKTNV-1" vertex="1">
          <mxGeometry x="160" y="80" width="120" height="40" as="geometry" />
        </mxCell>
        <mxCell id="QVaPhrEgmWK7eqTjdJqG-17" value="" style="edgeStyle=orthogonalEdgeStyle;rounded=0;orthogonalLoop=1;jettySize=auto;html=1;" edge="1" parent="WIyWlLk6GJQsqaUBKTNV-1" source="QVaPhrEgmWK7eqTjdJqG-0" target="QVaPhrEgmWK7eqTjdJqG-16">
          <mxGeometry relative="1" as="geometry" />
        </mxCell>
        <mxCell id="QVaPhrEgmWK7eqTjdJqG-0" value="Who is Zac Invergo?" style="whiteSpace=wrap;html=1;aspect=fixed;" vertex="1" parent="WIyWlLk6GJQsqaUBKTNV-1">
          <mxGeometry x="180" y="170" width="80" height="80" as="geometry" />
        </mxCell>
        <mxCell id="QVaPhrEgmWK7eqTjdJqG-1" value="" style="endArrow=none;html=1;entryX=0.5;entryY=1;entryDx=0;entryDy=0;" edge="1" parent="WIyWlLk6GJQsqaUBKTNV-1" target="QVaPhrEgmWK7eqTjdJqG-0">
          <mxGeometry width="50" height="50" relative="1" as="geometry">
            <mxPoint x="220" y="370" as="sourcePoint" />
            <mxPoint x="440" y="230" as="targetPoint" />
          </mxGeometry>
        </mxCell>
        <mxCell id="QVaPhrEgmWK7eqTjdJqG-6" value="" style="edgeStyle=orthogonalEdgeStyle;rounded=0;orthogonalLoop=1;jettySize=auto;html=1;" edge="1" parent="WIyWlLk6GJQsqaUBKTNV-1" source="QVaPhrEgmWK7eqTjdJqG-4" target="QVaPhrEgmWK7eqTjdJqG-5">
          <mxGeometry relative="1" as="geometry" />
        </mxCell>
        <mxCell id="QVaPhrEgmWK7eqTjdJqG-4" value="Languages known" style="rounded=0;whiteSpace=wrap;html=1;" vertex="1" parent="WIyWlLk6GJQsqaUBKTNV-1">
          <mxGeometry x="160" y="370" width="120" height="60" as="geometry" />
        </mxCell>
        <mxCell id="QVaPhrEgmWK7eqTjdJqG-8" value="" style="edgeStyle=orthogonalEdgeStyle;rounded=0;orthogonalLoop=1;jettySize=auto;html=1;" edge="1" parent="WIyWlLk6GJQsqaUBKTNV-1" source="QVaPhrEgmWK7eqTjdJqG-5" target="QVaPhrEgmWK7eqTjdJqG-7">
          <mxGeometry relative="1" as="geometry" />
        </mxCell>
        <mxCell id="QVaPhrEgmWK7eqTjdJqG-5" value="Examples of each isolated language?" style="rounded=0;whiteSpace=wrap;html=1;" vertex="1" parent="WIyWlLk6GJQsqaUBKTNV-1">
          <mxGeometry x="160" y="510" width="120" height="60" as="geometry" />
        </mxCell>
        <mxCell id="QVaPhrEgmWK7eqTjdJqG-10" value="" style="edgeStyle=orthogonalEdgeStyle;rounded=0;orthogonalLoop=1;jettySize=auto;html=1;" edge="1" parent="WIyWlLk6GJQsqaUBKTNV-1" source="QVaPhrEgmWK7eqTjdJqG-7" target="QVaPhrEgmWK7eqTjdJqG-9">
          <mxGeometry relative="1" as="geometry" />
        </mxCell>
        <mxCell id="QVaPhrEgmWK7eqTjdJqG-7" value="Links to demo sites and personal sites" style="whiteSpace=wrap;html=1;rounded=0;" vertex="1" parent="WIyWlLk6GJQsqaUBKTNV-1">
          <mxGeometry x="360" y="510" width="120" height="60" as="geometry" />
        </mxCell>
        <mxCell id="QVaPhrEgmWK7eqTjdJqG-12" value="" style="edgeStyle=orthogonalEdgeStyle;rounded=0;orthogonalLoop=1;jettySize=auto;html=1;" edge="1" parent="WIyWlLk6GJQsqaUBKTNV-1" source="QVaPhrEgmWK7eqTjdJqG-9" target="QVaPhrEgmWK7eqTjdJqG-11">
          <mxGeometry relative="1" as="geometry" />
        </mxCell>
        <mxCell id="QVaPhrEgmWK7eqTjdJqG-9" value="Personal References" style="whiteSpace=wrap;html=1;rounded=0;" vertex="1" parent="WIyWlLk6GJQsqaUBKTNV-1">
          <mxGeometry x="360" y="650" width="120" height="60" as="geometry" />
        </mxCell>
        <mxCell id="QVaPhrEgmWK7eqTjdJqG-15" value="" style="edgeStyle=orthogonalEdgeStyle;rounded=0;orthogonalLoop=1;jettySize=auto;html=1;" edge="1" parent="WIyWlLk6GJQsqaUBKTNV-1" source="QVaPhrEgmWK7eqTjdJqG-11" target="QVaPhrEgmWK7eqTjdJqG-14">
          <mxGeometry relative="1" as="geometry" />
        </mxCell>
        <mxCell id="QVaPhrEgmWK7eqTjdJqG-11" value="Index of my own literature and site references used throughout the course" style="whiteSpace=wrap;html=1;rounded=0;" vertex="1" parent="WIyWlLk6GJQsqaUBKTNV-1">
          <mxGeometry x="360" y="790" width="120" height="60" as="geometry" />
        </mxCell>
        <mxCell id="QVaPhrEgmWK7eqTjdJqG-13" value="Styles?&lt;br&gt;May include visual representations of codes&lt;br&gt;Maybe some &quot;video game&quot; coding to spice it up...if I can get to that point." style="rounded=0;whiteSpace=wrap;html=1;align=center;labelPosition=center;verticalLabelPosition=middle;verticalAlign=middle;" vertex="1" parent="WIyWlLk6GJQsqaUBKTNV-1">
          <mxGeometry x="160" y="-50" width="290" height="120" as="geometry" />
        </mxCell>
        <mxCell id="QVaPhrEgmWK7eqTjdJqG-14" value="Thanks for stopping by!!" style="whiteSpace=wrap;html=1;rounded=0;" vertex="1" parent="WIyWlLk6GJQsqaUBKTNV-1">
          <mxGeometry x="360" y="930" width="120" height="60" as="geometry" />
        </mxCell>
        <mxCell id="QVaPhrEgmWK7eqTjdJqG-16" value="Photos? Artwork?&lt;br&gt;Link to clip of live show?" style="whiteSpace=wrap;html=1;" vertex="1" parent="WIyWlLk6GJQsqaUBKTNV-1">
          <mxGeometry x="460" y="110" width="120" height="60" as="geometry" />
        </mxCell>
        <mxCell id="QVaPhrEgmWK7eqTjdJqG-18" value="&lt;div style=&quot;text-align: center&quot;&gt;&lt;span&gt;Embedded video of wedding trailers&lt;/span&gt;&lt;/div&gt;" style="rounded=0;whiteSpace=wrap;html=1;align=left;" vertex="1" parent="WIyWlLk6GJQsqaUBKTNV-1">
          <mxGeometry x="460" y="180" width="120" height="60" as="geometry" />
        </mxCell>
        <mxCell id="QVaPhrEgmWK7eqTjdJqG-19" value="" style="endArrow=classic;html=1;entryX=0;entryY=0.5;entryDx=0;entryDy=0;" edge="1" parent="WIyWlLk6GJQsqaUBKTNV-1" target="QVaPhrEgmWK7eqTjdJqG-18">
          <mxGeometry width="50" height="50" relative="1" as="geometry">
            <mxPoint x="360" y="210" as="sourcePoint" />
            <mxPoint x="450" y="150" as="targetPoint" />
          </mxGeometry>
        </mxCell>
        <mxCell id="QVaPhrEgmWK7eqTjdJqG-20" value="" style="endArrow=classic;html=1;" edge="1" parent="WIyWlLk6GJQsqaUBKTNV-1" target="QVaPhrEgmWK7eqTjdJqG-21">
          <mxGeometry width="50" height="50" relative="1" as="geometry">
            <mxPoint x="360" y="210" as="sourcePoint" />
            <mxPoint x="460" y="290" as="targetPoint" />
            <Array as="points">
              <mxPoint x="360" y="290" />
            </Array>
          </mxGeometry>
        </mxCell>
        <mxCell id="QVaPhrEgmWK7eqTjdJqG-23" value="" style="edgeStyle=orthogonalEdgeStyle;rounded=0;orthogonalLoop=1;jettySize=auto;html=1;" edge="1" parent="WIyWlLk6GJQsqaUBKTNV-1" source="QVaPhrEgmWK7eqTjdJqG-21" target="QVaPhrEgmWK7eqTjdJqG-22">
          <mxGeometry relative="1" as="geometry" />
        </mxCell>
        <mxCell id="QVaPhrEgmWK7eqTjdJqG-21" value="Mostly unrelated work experience but desire to learn and do something &quot;more&quot;" style="rounded=0;whiteSpace=wrap;html=1;" vertex="1" parent="WIyWlLk6GJQsqaUBKTNV-1">
          <mxGeometry x="460" y="260" width="120" height="60" as="geometry" />
        </mxCell>
        <mxCell id="QVaPhrEgmWK7eqTjdJqG-25" value="" style="edgeStyle=orthogonalEdgeStyle;rounded=0;orthogonalLoop=1;jettySize=auto;html=1;" edge="1" parent="WIyWlLk6GJQsqaUBKTNV-1" source="QVaPhrEgmWK7eqTjdJqG-22" target="QVaPhrEgmWK7eqTjdJqG-24">
          <mxGeometry relative="1" as="geometry" />
        </mxCell>
        <mxCell id="QVaPhrEgmWK7eqTjdJqG-22" value="I did Javascript in high school, and my brother is an inspiration, as he&#39;s done software engineering for much of his life and is a main inspiration" style="whiteSpace=wrap;html=1;rounded=0;" vertex="1" parent="WIyWlLk6GJQsqaUBKTNV-1">
          <mxGeometry x="460" y="360" width="120" height="110" as="geometry" />
        </mxCell>
        <mxCell id="QVaPhrEgmWK7eqTjdJqG-24" value="Big Brain Time" style="ellipse;shape=cloud;whiteSpace=wrap;html=1;rounded=0;" vertex="1" parent="WIyWlLk6GJQsqaUBKTNV-1">
          <mxGeometry x="340" y="370" width="80" height="55" as="geometry" />
        </mxCell>
        <mxCell id="QVaPhrEgmWK7eqTjdJqG-26" value="" style="endArrow=classic;html=1;entryX=1;entryY=0.5;entryDx=0;entryDy=0;exitX=0.16;exitY=0.55;exitDx=0;exitDy=0;exitPerimeter=0;" edge="1" parent="WIyWlLk6GJQsqaUBKTNV-1" source="QVaPhrEgmWK7eqTjdJqG-24" target="QVaPhrEgmWK7eqTjdJqG-4">
          <mxGeometry width="50" height="50" relative="1" as="geometry">
            <mxPoint x="400" y="270" as="sourcePoint" />
            <mxPoint x="450" y="220" as="targetPoint" />
          </mxGeometry>
        </mxCell>
        <mxCell id="QVaPhrEgmWK7eqTjdJqG-28" value="Want to skip the personal stuff?" style="rounded=0;whiteSpace=wrap;html=1;align=center;" vertex="1" parent="WIyWlLk6GJQsqaUBKTNV-1">
          <mxGeometry x="245" y="300" width="120" height="40" as="geometry" />
        </mxCell>
        <mxCell id="QVaPhrEgmWK7eqTjdJqG-29" value="" style="endArrow=none;dashed=1;html=1;dashPattern=1 3;strokeWidth=2;entryX=0.75;entryY=0;entryDx=0;entryDy=0;" edge="1" parent="WIyWlLk6GJQsqaUBKTNV-1" target="QVaPhrEgmWK7eqTjdJqG-28">
          <mxGeometry width="50" height="50" relative="1" as="geometry">
            <mxPoint x="335" y="210" as="sourcePoint" />
            <mxPoint x="320" y="250" as="targetPoint" />
          </mxGeometry>
        </mxCell>
        <mxCell id="QVaPhrEgmWK7eqTjdJqG-30" value="" style="endArrow=none;dashed=1;html=1;dashPattern=1 3;strokeWidth=2;exitX=0;exitY=0.5;exitDx=0;exitDy=0;" edge="1" parent="WIyWlLk6GJQsqaUBKTNV-1" source="QVaPhrEgmWK7eqTjdJqG-28">
          <mxGeometry width="50" height="50" relative="1" as="geometry">
            <mxPoint x="390" y="210" as="sourcePoint" />
            <mxPoint x="220" y="320" as="targetPoint" />
          </mxGeometry>
        </mxCell>
      </root>
    </mxGraphModel>
  </diagram>
</mxfile>
